<?xml version="1.0" encoding="utf-8"?>
<!-- Generator: Adobe Illustrator 22.0.1, SVG Export Plug-In . SVG Version: 6.00 Build 0)  -->
<svg version="1.1" id="Layer_1" xmlns="http://www.w3.org/2000/svg" xmlns:xlink="http://www.w3.org/1999/xlink" x="0px" y="0px"
	 viewBox="0 0 24 32" style="enable-background:new 0 0 24 32;" xml:space="preserve">
<g>
	<g>
		<path d="M12,2c2.2,0,4,1.8,4,4v4c0,2.2-1.8,4-4,4s-4-1.8-4-4V6C8,3.8,9.8,2,12,2 M12,0C8.7,0,6,2.7,6,6v4c0,3.3,2.7,6,6,6
			c3.3,0,6-2.7,6-6V6C18,2.7,15.3,0,12,0L12,0z"/>
	</g>
	<g>
		<path d="M12,20c5.5,0,10,4.5,10,10H2C2,24.5,6.5,20,12,20 M12,18C5.4,18,0,23.4,0,30c0,1.1,0.9,2,2,2h20c1.1,0,2-0.9,2-2
			C24,23.4,18.6,18,12,18L12,18z"/>
	</g>
</g>
</svg>
