<?xml version="1.0" encoding="utf-8"?>
<!-- Generator: Adobe Illustrator 22.0.1, SVG Export Plug-In . SVG Version: 6.00 Build 0)  -->
<svg version="1.1" id="Layer_1" xmlns="http://www.w3.org/2000/svg" xmlns:xlink="http://www.w3.org/1999/xlink" x="0px" y="0px"
	 viewBox="0 0 22 20" style="enable-background:new 0 0 22 20;" xml:space="preserve">
<g>
	<path d="M14,20c-0.4,0-0.8-0.3-0.9-0.7L8,4.2l-2.1,6.2C5.8,10.7,5.4,11,5,11H1c-0.6,0-1-0.4-1-1s0.4-1,1-1h3.3l2.8-8.3
		C7.2,0.3,7.6,0,8,0s0.8,0.3,0.9,0.7L14,15.8l2.1-6.2C16.2,9.3,16.6,9,17,9h4c0.6,0,1,0.4,1,1s-0.4,1-1,1h-3.3l-2.8,8.3
		C14.8,19.7,14.4,20,14,20z"/>
</g>
</svg>
