<svg xmlns="http://www.w3.org/2000/svg" width="22" height="19" viewBox="0 0 22 19">
  <g fill="#000000">
    <path d="M8.43213258,1.34612892 C8.97884849,0.444793983 9.95137074,-0.102744005 11,-0.102744005 C12.0486293,-0.102744005 13.0211515,0.444793983 13.5678674,1.34612892 L22.0459905,15.4999396 C22.5790281,16.4230391 22.5822106,17.55966 22.0543507,18.4857299 C21.5264909,19.4117999 20.5468725,19.9882243 19.47,20 L2.51900947,19.9999396 C1.4531275,19.9882243 0.47350913,19.4117999 -0.0543507499,18.4857299 C-0.58221063,17.55966 -0.579028089,16.4230391 -0.037867422,15.4861289 L8.43213258,1.34612892 Z M1.68599053,16.5000604 C1.50831134,16.8077602 1.5072505,17.1866339 1.68320379,17.4953238 C1.85915708,17.8040138 2.18569654,17.9961553 2.53,18 L19.4590095,18.0000604 C19.8143035,17.9961553 20.1408429,17.8040138 20.3167962,17.4953238 C20.4927495,17.1866339 20.4916887,16.8077602 20.3221326,16.5138711 L11.855,2.378628 C11.6737172,2.07976866 11.3495431,1.897256 11,1.897256 C10.6512233,1.897256 10.3277045,2.07896919 10.1461945,2.37666387 L1.68599053,16.5000604 Z"/>
    <path d="M10 7C10 6.44771525 10.4477153 6 11 6 11.5522847 6 12 6.44771525 12 7L12 11C12 11.5522847 11.5522847 12 11 12 10.4477153 12 10 11.5522847 10 11L10 7zM10 14C10 13.4477153 10.4477153 13 11 13 11.5522847 13 12 13.4477153 12 14L12 15C12 15.5522847 11.5522847 16 11 16 10.4477153 16 10 15.5522847 10 15L10 14z"/>
  </g>
</svg>
