<?xml version="1.0" encoding="utf-8"?>
<!-- Generator: Adobe Illustrator 22.0.1, SVG Export Plug-In . SVG Version: 6.00 Build 0)  -->
<svg version="1.1" id="Layer_1" xmlns="http://www.w3.org/2000/svg" xmlns:xlink="http://www.w3.org/1999/xlink" x="0px" y="0px"
	 viewBox="0 0 88.3 49.5" style="enable-background:new 0 0 88.3 49.5;" xml:space="preserve">
<path d="M36.8,49.5H0.5C0.2,49.5,0,49.3,0,49s0.2-0.5,0.5-0.5h36.3c0.3,0,0.5,0.2,0.5,0.5S37.1,49.5,36.8,49.5z M75.9,11
	c0,0.6,0.4,1,1,1s1-0.4,1-1s-0.4-1-1-1S75.9,10.4,75.9,11z M54.5,5.9l0.3-0.1c5.5-3,11.8-4.2,18-3.5c-0.3,0.3-0.5,0.5-0.6,0.7
	l1.1,0.9c1.3-1.4,3.2-2.8,3.8-2.5c0.1,0.1,0.2,0.2,0.3,0.3c0.1,0.8-0.1,1.6-0.6,2.2l-0.9,1.2L77,5.9l0.5-0.6c1.2,1,2.8,2.5,3.1,3.2
	c0.1,0.4,0.2,0.8,0.3,1.1c0.2,0.8,0.5,1.5,1.1,2.1c0.7,0.7,1.9,2.2,2.4,2.8c-0.3,0.6-0.7,1.1-1.2,1.6c-0.6,0.6-4.6,0.7-8.1,0.6
	l-3.9-1.6L70.8,15l-0.3,0.3c-0.8,0.6-1.8,1-2.9,1h-0.7v0.7c0,0.7-1.8,4.6-3.5,7.9l-6.4,5.5v0.3c-0.2,2.4-0.7,6-1.2,6.7l-0.5,0.8
	l0.9,0.3c1.4,0.5,2.4,1.7,2.7,3.2h-9l-0.6-1.3l1.6-11.9c-0.4-1.7-0.6-3.3-0.7-4.9h-1.4c0.1,1.2,0.2,2.5,0.5,3.7
	c-2.1,0.3-8.6,1.2-14.3,0.1c1.4-2.6,1.2-4.2,1.2-4.4l-1.4,0.1c0,0,0.3,3.9-5.9,9.3c-2.6,1.4-5.5,3.4-5.2,4.9
	c0.2,0.7,0.7,1.3,1.4,1.7c0.9,0.7,1.8,1.4,2,2.8h-8.3l-1-1.4c0.2-1.4,1.1-7.8,0.8-18.2c-0.2-4.1,1.4-8,4.4-10.8
	c4-3.8,10.3-5.9,16.6-5.5c1.5,0.1,3.3,0.2,5.4,0.3c0.2,0,0.5,0,0.8,0l0-1.4c-1.8-0.1-3.8-0.2-6.1-0.3C32.7,3.7,26,6,21.7,10
	c-3.3,3.1-5.1,7.4-4.9,11.9C17.2,33.4,16,40.1,16,40.2l-0.1,0.3l1.8,2.5l10.4,0v-0.7c0.1-2.7-1.5-3.9-2.5-4.6
	c-0.4-0.3-0.8-0.6-0.9-0.8c0.1-0.6,2.2-2.2,4.6-3.5l0.1-0.1l0.2-0.2l2.3,4.4c-0.3,0.9-0.8,3.8,0.7,5.3l0.2,0.2H44l0.2-0.5
	c0.3-1,0.1-2.1-0.4-3c-0.7-1.3-2.1-2.2-4.2-2.7c0.1-0.7,0.3-1.4,0.6-2c0.8-1.8,1.5-3.7,2.1-5.7c2.3-0.1,4.7-0.3,7-0.6l-1.6,12
	l1.1,2.5h11.5l0-0.7c0.2-2.4-1.6-4.2-3-4.9c0.6-2.1,0.9-4.2,1.1-6.3l0.5-0.4l4.1,7c-0.2,0.9-0.6,3.4,0.7,5l0.2,0.3h11.3v-0.7
	c-0.1-2.8-2.1-5.1-4.9-5.6C68.9,33.7,66.7,22,67,20.7c0.5-1,0.9-2,1.2-3.1c1-0.1,2-0.4,2.9-1l3.7,1.5h0.1c1.8,0.1,7.9,0.3,9.3-0.9
	c0.8-0.7,1.4-1.6,1.6-2.6l0.1-0.3l-0.2-0.3c-0.1-0.1-1.8-2.2-2.7-3.2c-0.4-0.4-0.7-1-0.8-1.6c-0.1-0.4-0.2-0.8-0.4-1.2
	c-0.5-1.2-2.7-3.1-3.6-4c0.4-0.9,0.6-1.9,0.4-2.8c-0.1-0.5-0.5-0.9-1-1.2c-1-0.5-2.4,0.1-3.5,0.9c-6.9-1.1-13.9,0.2-20,3.4
	c-0.6,0-2.6,0.1-6.2,0l-0.1,1.4C52.3,6,54.3,5.9,54.5,5.9z M38.3,37.4c0.1,0.3,0.4,0.6,0.8,0.6c1.7,0.4,2.9,1.1,3.5,2
	c0.3,0.4,0.4,0.9,0.4,1.4h-9.4c-0.8-1.1-0.4-3.2-0.1-4l0.1-0.3l-2.7-5.2c1.2-1.1,2.3-2.4,3.2-3.7c2.3,0.5,4.6,0.7,6.9,0.7
	c-0.5,1.7-1.2,3.4-1.9,5.1C38.6,34.9,37.9,36.5,38.3,37.4z M69.3,37.9l0.3,0.1c2,0.2,3.6,1.7,4,3.6h-9c-0.9-1.4-0.2-3.8-0.2-3.8
	l0.1-0.3l-4.5-7.8l4.4-3.8l0.1-0.1l0.1-0.1c0.3-0.5,0.7-1.3,1.2-2.3c0.6,4.7,2.6,12.8,3.4,14.3L69.3,37.9z M88.3,49
	c0-0.3-0.2-0.5-0.5-0.5H51.5c-0.3,0-0.5,0.2-0.5,0.5s0.2,0.5,0.5,0.5h36.3C88.1,49.5,88.3,49.3,88.3,49z M49.2,49
	c0-0.3-0.2-0.5-0.5-0.5h-8.2c-0.3,0-0.5,0.2-0.5,0.5s0.2,0.5,0.5,0.5h8.2C49,49.5,49.2,49.3,49.2,49z M12.2,33
	c0-0.3-0.2-0.5-0.5-0.5H3.5C3.2,32.5,3,32.7,3,33s0.2,0.5,0.5,0.5h8.2C12,33.5,12.2,33.3,12.2,33z M83.9,31c0-0.3-0.2-0.5-0.5-0.5
	h-10c-0.3,0-0.5,0.2-0.5,0.5s0.2,0.5,0.5,0.5h10C83.7,31.5,83.9,31.3,83.9,31z"/>
</svg>
