<?xml version="1.0" encoding="utf-8"?>
<!-- Generator: Adobe Illustrator 22.0.1, SVG Export Plug-In . SVG Version: 6.00 Build 0)  -->
<svg version="1.1" id="Layer_1" xmlns="http://www.w3.org/2000/svg" xmlns:xlink="http://www.w3.org/1999/xlink" x="0px" y="0px"
	 viewBox="0 0 18 22" style="enable-background:new 0 0 18 22;" xml:space="preserve">
<path d="M17,0H3.5C1.6,0,0,1.6,0,3.5v15C0,20.4,1.6,22,3.5,22H17c0.6,0,1-0.4,1-1V1C18,0.4,17.6,0,17,0z M3.5,2H16v13H3.5
	c-0.5,0-1,0.1-1.5,0.4V3.5C2,2.7,2.7,2,3.5,2z M3.5,20C2.7,20,2,19.3,2,18.5S2.7,17,3.5,17H16v3H3.5z"/>
</svg>
