<svg xmlns="http://www.w3.org/2000/svg" width="19" height="17" viewBox="0 0 19 17">
    <path fill="#000000" d="M8.0098 17C8.6058 17 9.1268 16.6090184 9.2808 16.0015832L12.5278 1.57719062C12.6128 1.22813475 12.5518.872253765 12.3568.57584878 12.1678.288218943 11.8758.0932156635 11.5338.0259395321 10.8328-.112512796 10.1408.319419468 9.9718 1.01850622L6.7208 15.4594741C6.5798 16.1556358 7.0368 16.8342472 7.7408 16.9736746 7.8318 16.9912249 7.9218 17 8.0098 17M13.7856 12.794C14.3036 13.301 15.1116 13.3 15.6296 12.793L18.8666 9.621C19.1206 9.373 19.2596 9.047 19.2596 8.703 19.2596 8.36 19.1206 8.035 18.8666 7.786L15.6166 4.602C15.3666 4.374 15.0496 4.261 14.7306 4.261 14.3816 4.261 14.0306 4.398 13.7726 4.669 13.3116 5.156 13.3116 5.948 13.7856 6.45L16.0746 8.691 13.7516 10.949C13.2646 11.461 13.2746 12.276 13.7696 12.778L13.7856 12.794zM5.4736 4.6412C4.9556 4.1342 4.1476 4.1352 3.6296 4.6412L.3926 7.8142C.1396 8.0622-.0004 8.3882-.0004 8.7312-.0004 9.0752.1396 9.4002.3926 9.6492L3.6426 12.8332C3.8926 13.0612 4.2106 13.1742 4.5286 13.1742 4.8786 13.1742 5.2286 13.0372 5.4866 12.7662 5.9476 12.2792 5.9476 11.4872 5.4736 10.9852L3.1846 8.7432 5.5076 6.4852C5.9946 5.9742 5.9846 5.1592 5.4896 4.6572L5.4736 4.6412z"/>
</svg>
