<?xml version="1.0" encoding="utf-8"?>
<!-- Generator: Adobe Illustrator 22.0.1, SVG Export Plug-In . SVG Version: 6.00 Build 0)  -->
<svg version="1.1" id="Layer_1" xmlns="http://www.w3.org/2000/svg" xmlns:xlink="http://www.w3.org/1999/xlink" x="0px" y="0px"
	 viewBox="0 0 20.1 20.1" style="enable-background:new 0 0 20.1 20.1;" xml:space="preserve">
<path d="M3,14.1c1.7,0,3,1.3,3,3c0,1.7-1.3,3-3,3s-3-1.3-3-3C0,15.5,1.3,14.1,3,14.1z M10.1,7.1c1.7,0,3,1.3,3,3s-1.3,3-3,3
	s-3-1.3-3-3S8.4,7.1,10.1,7.1z M17.1,0c1.7,0,3,1.3,3,3s-1.3,3-3,3s-3-1.3-3-3S15.5,0,17.1,0z"/>
</svg>
