<?xml version="1.0" encoding="utf-8"?>
<!-- Generator: Adobe Illustrator 22.0.1, SVG Export Plug-In . SVG Version: 6.00 Build 0)  -->
<svg version="1.1" id="Layer_1" xmlns="http://www.w3.org/2000/svg" xmlns:xlink="http://www.w3.org/1999/xlink" x="0px" y="0px"
	 viewBox="0 0 72.4 60" style="enable-background:new 0 0 72.4 60;" xml:space="preserve">
<path d="M55.9,41.3c0.3-0.3,0.3-0.9,0-1.2c-0.3-0.3-0.9-0.3-1.2,0c-1,1-2.1,1.9-3.3,2.7v-4.3c0-0.5-0.4-0.8-0.8-0.8
	c-0.5,0-0.8,0.4-0.8,0.8v11.8c0,0.5,0.4,0.8,0.8,0.8h0.3c1.4,0,2.5,0.9,2.9,2.1h-6.3c-1.4,0-2.5-1.1-2.5-2.5V43
	c0-0.5-0.4-0.8-0.8-0.8c-1,0-1.8-0.8-1.8-1.8v-1.5c0-0.5-0.4-0.8-0.8-0.8c-0.5,0-0.8,0.4-0.8,0.8v1.5c0,1.6,1.1,3,2.7,3.4v1.6
	c-0.2,0-0.4,0-0.5,0H32.5v-1.2c2.9-0.4,5.1-2.9,5.1-5.9V35c0-0.5-0.4-0.8-0.8-0.8c-0.5,0-0.8,0.4-0.8,0.8v3.3c0,2.3-1.9,4.2-4.3,4.2
	c-0.5,0-0.8,0.4-0.8,0.8v7c0,0.5,0.4,0.8,0.8,0.8h0.3c1.4,0,2.5,0.9,2.9,2.1h-6.3c-1.4,0-2.5-1.1-2.5-2.5v-11c0-0.5-0.4-0.8-0.8-0.8
	c-0.5,0-0.8,0.4-0.8,0.8v1.3c0,5.9-4.2,10.8-9.8,12c1.3-1.3,2.4-2.8,3.2-4.4c1.2-2.4,1.9-5.1,1.9-7.8c0-3.9,1.5-7.5,4.3-10.2
	c2.8-2.7,6.4-4.2,10.3-4.2h2.6c0.5,0,0.8-0.4,0.8-0.8s-0.4-0.8-0.8-0.8h-2.6c-4.3,0-8.4,1.7-11.5,4.7c-3.1,3-4.8,7.1-4.8,11.4
	c0,2.4-0.6,4.9-1.7,7.1c-1.1,2.2-2.8,4.1-4.7,5.6c-0.3,0.2-0.4,0.6-0.3,0.9c0.1,0.3,0.4,0.6,0.8,0.6c5.3,0,10-3,12.4-7.3v3.2
	c0,2.3,1.9,4.1,4.2,4.1h7.3c0.5,0,0.8-0.4,0.8-0.8c0-2.4-1.8-4.3-4.1-4.6V47h10.1c0.2,0,0.4,0,0.5,0v3.9c0,2.3,1.9,4.1,4.2,4.1h7.3
	c0.5,0,0.8-0.4,0.8-0.8c0-2.4-1.8-4.3-4.1-4.6v-4.8C53,43.9,54.5,42.7,55.9,41.3z M67.8,4.9l-4.7-4.6C62.9,0.1,62.7,0,62.5,0H56
	c-2.9,0-5.3,2.3-5.3,5.2v17.3c0,1-0.8,1.8-1.8,1.8h-9.5c-0.5,0-0.9,0.4-0.9,0.8c0,0.5,0.4,0.8,0.9,0.8h9.5c1.9,0,3.5-1.5,3.5-3.4
	V5.2c0-1.9,1.6-3.5,3.6-3.5h6.1l4.2,4.1v2h-7.8c-0.8,0-1.5-0.7-1.5-1.5V5.2c0-0.5-0.4-0.8-0.9-0.8s-0.9,0.4-0.9,0.8v1.2
	c0,1.7,1.4,3.1,3.2,3.1h0.6v18.9c0,3.1-0.9,6.2-2.6,8.8c-0.3,0.4-0.1,0.9,0.3,1.2c0.1,0.1,0.3,0.1,0.5,0.1c0.3,0,0.6-0.1,0.7-0.4
	c1.9-2.9,2.9-6.3,2.9-9.7V9.5h6.3c0.5,0,0.9-0.4,0.9-0.8V5.4C68,5.2,67.9,5,67.8,4.9z M61.8,3.7h-0.4c-0.4,0-0.7,0.4-0.7,0.9
	s0.3,0.9,0.7,0.9h0.4c0.4,0,0.7-0.4,0.7-0.9S62.2,3.7,61.8,3.7z M71.9,60H42.5c-0.3,0-0.5-0.2-0.5-0.5s0.2-0.5,0.5-0.5h29.4
	c0.3,0,0.5,0.2,0.5,0.5S72.2,60,71.9,60z M39.8,60h-6.4c-0.3,0-0.5-0.2-0.5-0.5s0.2-0.5,0.5-0.5h6.4c0.3,0,0.5,0.2,0.5,0.5
	S40.1,60,39.8,60z M29.9,60H0.5C0.2,60,0,59.8,0,59.5S0.2,59,0.5,59h29.4c0.3,0,0.5,0.2,0.5,0.5S30.2,60,29.9,60z M12.8,48H6.5
	C6.2,48,6,47.8,6,47.5S6.2,47,6.5,47h6.4c0.3,0,0.5,0.2,0.5,0.5S13.1,48,12.8,48z M68.6,47h-8.1c-0.3,0-0.5-0.2-0.5-0.5
	s0.2-0.5,0.5-0.5h8.1c0.3,0,0.5,0.2,0.5,0.5S68.9,47,68.6,47z"/>
</svg>
