<?xml version="1.0" encoding="utf-8"?>
<!-- Generator: Adobe Illustrator 22.0.1, SVG Export Plug-In . SVG Version: 6.00 Build 0)  -->
<svg version="1.1" id="Layer_1" xmlns="http://www.w3.org/2000/svg" xmlns:xlink="http://www.w3.org/1999/xlink" x="0px" y="0px"
	 viewBox="0 0 20 22" style="enable-background:new 0 0 20 22;" xml:space="preserve">
<style type="text/css">
	.st0{fill:#231F20;}
</style>
<path class="st0" d="M20,16v3c0,1.7-1.3,3-3,3H3c-1.7,0-3-1.3-3-3v-3c0-0.6,0.4-1,1-1s1,0.4,1,1v3c0,0.6,0.4,1,1,1h14
	c0.6,0,1-0.4,1-1v-3c0-0.6,0.4-1,1-1S20,15.4,20,16z M9.3,15.7c0.1,0.1,0.2,0.2,0.3,0.2C9.7,16,9.9,16,10,16s0.3,0,0.4-0.1
	c0.1-0.1,0.2-0.1,0.3-0.2l4-4c0.4-0.4,0.4-1,0-1.4s-1-0.4-1.4,0L11,12.6V1c0-0.6-0.4-1-1-1S9,0.4,9,1v11.6l-2.3-2.3
	c-0.4-0.4-1-0.4-1.4,0s-0.4,1,0,1.4L9.3,15.7z"/>
</svg>
