<?xml version="1.0" encoding="utf-8"?>
<!-- Generator: Adobe Illustrator 22.0.1, SVG Export Plug-In . SVG Version: 6.00 Build 0)  -->
<svg version="1.1" id="Layer_1" xmlns="http://www.w3.org/2000/svg" xmlns:xlink="http://www.w3.org/1999/xlink" x="0px" y="0px"
	 viewBox="0 0 73.5 63.4" style="enable-background:new 0 0 73.5 63.4;" xml:space="preserve">
<path d="M61.5,18.9c-5.2-1.3-10.4,1.1-14.6,5.3C42.1,8.8,28.8-2,17.3,0.3C11.1,1.6,5.9,6.5,2.8,14c-2.9,7.1-3.6,15.8-2,23.8
	c2.7,12.9,10.4,25.6,24.5,25.6c1.7,0,3.4-0.2,5.3-0.6c4.4-0.9,8.2-2.9,11.2-5.7c2.1,2.8,5.1,4.7,8.9,5.7c1.5,0.4,2.9,0.6,4.3,0.6
	c3.2,0,6.2-1,8.8-2.8c4.1-2.9,7.1-7.9,8.8-14.4c1.4-5.6,1.1-11.7-0.9-16.9C69.5,23.8,65.9,20.1,61.5,18.9z M54.8,24.2
	c0,0.9-0.7,1.6-1.6,1.6s-1.6-0.7-1.6-1.6c0-0.9,0.7-1.6,1.6-1.6C54,22.5,54.8,23.3,54.8,24.2z M4.6,14.8C7.5,7.9,12.1,3.4,17.7,2.3
	c1-0.2,1.9-0.3,2.9-0.3c7.1,0,14.5,5,19.7,12.8l-3.5,4.3l-5-2.6c-0.4-0.2-0.9-0.1-1.2,0.3L27,21.2l-5-2.6c-0.4-0.2-0.9-0.1-1.2,0.3
	l-3.6,4.4l-5-2.6c-0.4-0.2-0.9-0.1-1.2,0.3l-3.6,4.4l-4.8-2.5C2.8,20.1,3.6,17.4,4.6,14.8z M2.1,25.1l4.8,2.5
	c0.1,0.1,0.3,0.1,0.5,0.1c0.3,0,0.6-0.1,0.8-0.4l3.6-4.4l5,2.6c0.4,0.2,0.9,0.1,1.2-0.3l3.6-4.4l5,2.6c0.4,0.2,0.9,0.1,1.2-0.3
	l3.6-4.4l5,2.6c0.4,0.2,0.9,0.1,1.2-0.3l3.6-4.4c1.6,2.8,3,5.9,4,9.2c-2.8,3.3-5,7.5-6.1,11.8l0,0c-0.2,0.7-0.3,1.4-0.5,2.1
	l-2.9,3.4L31.4,41c-0.4-0.2-0.9-0.1-1.2,0.2l-3.1,3.6l-4.3-2.1c-0.4-0.2-0.9-0.1-1.2,0.2l-3,3.7l-4.3-2.1c-0.4-0.2-0.9-0.1-1.2,0.2
	L10,48.3l-4.3-2.1c-0.1,0-0.2-0.1-0.3-0.1c-1.1-2.6-2-5.5-2.6-8.7C1.9,33.4,1.7,29.2,2.1,25.1z M40.6,55.6
	c-2.8,2.7-6.3,4.6-10.4,5.4C20,63.1,11.7,58.7,6.7,48.9l3.2,1.5c0.1,0.1,0.3,0.1,0.4,0.1c0.3,0,0.6-0.1,0.8-0.3l3-3.6l4.3,2.1
	c0.4,0.2,0.9,0.1,1.2-0.2l3.1-3.6L27,47c0.4,0.2,0.9,0.1,1.2-0.2l3.1-3.6l4.3,2.1c0.4,0.2,0.9,0.1,1.2-0.2l1.4-1.6
	c-0.4,4.3,0.2,8.1,1.8,11.2v0.1l0.1,0.1C40.3,55.1,40.4,55.3,40.6,55.6z M46.5,57.4c0-0.9,0.7-1.6,1.6-1.6c0.9,0,1.6,0.7,1.6,1.6
	S49,59,48.1,59C47.2,59.1,46.5,58.3,46.5,57.4z M58,58.2c0-0.9,0.7-1.6,1.6-1.6s1.6,0.7,1.6,1.6s-0.7,1.6-1.6,1.6S58,59.1,58,58.2z
	 M70.5,45.6c-1.4,5.7-4,10-7.3,12.7v-0.1c0-2-1.6-3.6-3.6-3.6S56,56.2,56,58.2c0,1.2,0.6,2.2,1.5,2.9c-2,0.4-4.2,0.4-6.4-0.2
	c-0.4-0.1-0.7-0.2-1.1-0.3c1.1-0.6,1.9-1.8,1.9-3.2c0-2-1.6-3.6-3.6-3.6s-3.6,1.6-3.6,3.6c-1.1-1-1.9-2.2-2.6-3.6
	c-2-4-2.2-9.4-0.6-15.6c1.4-5.7,4.5-10.6,8.3-13.7c0.1,1.9,1.7,3.4,3.6,3.4c2,0,3.6-1.6,3.6-3.6c0-1.2-0.6-2.3-1.6-3
	c2-0.6,3.9-0.8,5.8-0.3c3.7,0.9,6.9,4.3,8.7,9.1c0.4,1,0.7,2.1,0.9,3.1c-0.5-0.2-1-0.3-1.5-0.3c-2,0-3.6,1.6-3.6,3.6
	s1.6,3.6,3.6,3.6c0.8,0,1.6-0.3,2.2-0.8C71.3,41.4,71.1,43.6,70.5,45.6z M70.8,36.4c0,0.9-0.7,1.6-1.6,1.6s-1.6-0.7-1.6-1.6
	s0.7-1.6,1.6-1.6S70.8,35.5,70.8,36.4z M54.2,46.5c-2,0-3.6,1.6-3.6,3.6s1.6,3.6,3.6,3.6s3.6-1.6,3.6-3.6S56.2,46.5,54.2,46.5z
	 M54.2,51.8c-0.9,0-1.6-0.7-1.6-1.6s0.7-1.6,1.6-1.6s1.6,0.7,1.6,1.6S55.1,51.8,54.2,51.8z M64.2,42.7c-2,0-3.6,1.6-3.6,3.6
	s1.6,3.6,3.6,3.6s3.6-1.6,3.6-3.6S66.3,42.7,64.2,42.7z M64.2,48c-0.9,0-1.6-0.7-1.6-1.6s0.7-1.6,1.6-1.6s1.6,0.7,1.6,1.6
	C65.9,47.2,65.2,48,64.2,48z M45.5,41.2c-2,0-3.6,1.6-3.6,3.6s1.6,3.6,3.6,3.6s3.6-1.6,3.6-3.6S47.5,41.2,45.5,41.2z M45.5,46.5
	c-0.9,0-1.6-0.7-1.6-1.6s0.7-1.6,1.6-1.6s1.6,0.7,1.6,1.6C47.2,45.8,46.4,46.5,45.5,46.5z M62.3,33c2,0,3.6-1.6,3.6-3.6
	s-1.6-3.6-3.6-3.6s-3.6,1.6-3.6,3.6S60.3,33,62.3,33z M62.3,27.7c0.9,0,1.6,0.7,1.6,1.6s-0.7,1.6-1.6,1.6s-1.6-0.7-1.6-1.6
	S61.4,27.7,62.3,27.7z M48.9,36.7c2,0,3.6-1.6,3.6-3.6s-1.6-3.6-3.6-3.6s-3.6,1.6-3.6,3.6S46.9,36.7,48.9,36.7z M48.9,31.4
	c0.9,0,1.6,0.7,1.6,1.6s-0.7,1.6-1.6,1.6s-1.6-0.7-1.6-1.6S48,31.4,48.9,31.4z M62.1,38.4c0-2-1.6-3.6-3.6-3.6s-3.6,1.6-3.6,3.6
	s1.6,3.6,3.6,3.6S62.1,40.4,62.1,38.4z M58.4,40c-0.9,0-1.6-0.7-1.6-1.6c0-0.9,0.7-1.6,1.6-1.6s1.6,0.7,1.6,1.6
	C60.1,39.3,59.3,40,58.4,40z"/>
</svg>
