<?xml version="1.0" encoding="utf-8"?>
<!-- Generator: Adobe Illustrator 22.0.1, SVG Export Plug-In . SVG Version: 6.00 Build 0)  -->
<svg version="1.1" id="Layer_1" xmlns="http://www.w3.org/2000/svg" xmlns:xlink="http://www.w3.org/1999/xlink" x="0px" y="0px"
	 viewBox="0 0 21.3 23.4" style="enable-background:new 0 0 21.3 23.4;" xml:space="preserve">
<path d="M20.2,17H1.1c-0.4,0-0.7-0.2-0.9-0.6c-0.2-0.3-0.2-0.8,0-1.1L9.7,0.5c0.4-0.6,1.4-0.6,1.8,0l9.6,14.9c0.2,0.3,0.2,0.7,0,1.1
	C21,16.8,20.6,17,20.2,17z M3,14.9h15.3L10.6,3L3,14.9z M20,23.4H1c-0.6,0-1-0.4-1-1s0.5-1,1-1H20c0.6,0,1,0.4,1,1
	S20.5,23.4,20,23.4z"/>
</svg>
