<?xml version="1.0" encoding="utf-8"?>
<!-- Generator: Adobe Illustrator 22.0.1, SVG Export Plug-In . SVG Version: 6.00 Build 0)  -->
<svg version="1.1" id="Layer_1" xmlns="http://www.w3.org/2000/svg" xmlns:xlink="http://www.w3.org/1999/xlink" x="0px" y="0px"
	 viewBox="0 0 18 22" style="enable-background:new 0 0 18 22;" xml:space="preserve">
<path d="M17.9,7.6c-0.1-0.1-0.1-0.2-0.2-0.3l-7-7c-0.1-0.1-0.2-0.2-0.3-0.2C10.3,0,10.1,0,10,0H3C1.3,0,0,1.3,0,3v16
	c0,1.7,1.3,3,3,3h12c1.7,0,3-1.3,3-3V8C18,7.9,18,7.7,17.9,7.6z M11,3.4L14.6,7H11V3.4z M15,20H3c-0.6,0-1-0.4-1-1V3
	c0-0.6,0.4-1,1-1h6v6c0,0.6,0.4,1,1,1h6v10C16,19.6,15.6,20,15,20z"/>
</svg>
