<?xml version="1.0" encoding="utf-8"?>
<!-- Generator: Adobe Illustrator 22.0.1, SVG Export Plug-In . SVG Version: 6.00 Build 0)  -->
<svg version="1.1" id="Layer_1" xmlns="http://www.w3.org/2000/svg" xmlns:xlink="http://www.w3.org/1999/xlink" x="0px" y="0px"
	 viewBox="0 0 12 12" style="enable-background:new 0 0 12 12;" xml:space="preserve">
<path d="M7.5,0C7.1,0,6.8,0.3,6.8,0.8s0.3,0.8,0.8,0.8h1.9L4,7C3.7,7.3,3.7,7.7,4,8c0.1,0.1,0.3,0.2,0.5,0.2S4.9,8.2,5,8l5.5-5.5
	v1.9c0,0.4,0.3,0.8,0.8,0.8S12,4.9,12,4.5V0.8C12,0.3,11.7,0,11.2,0H7.5z M2,1.5c-1.1,0-2,0.9-2,2v6.6C0,11.1,0.9,12,2,12h6.6
	c1.1,0,1.9-0.9,1.9-1.9V6.4c0-0.4-0.3-0.8-0.8-0.8S9,6,9,6.4v3.6c0,0.2-0.2,0.4-0.4,0.4H2c-0.2,0-0.5-0.2-0.5-0.4V3.5
	C1.5,3.2,1.7,3,2,3h3.6C6,3,6.3,2.7,6.3,2.2S6,1.5,5.6,1.5H2z"/>
</svg>
