<?xml version="1.0" encoding="utf-8"?>
<!-- Generator: Adobe Illustrator 22.0.1, SVG Export Plug-In . SVG Version: 6.00 Build 0)  -->
<svg version="1.1" id="Layer_1" xmlns="http://www.w3.org/2000/svg" xmlns:xlink="http://www.w3.org/1999/xlink" x="0px" y="0px"
	 viewBox="0 0 20 22" style="enable-background:new 0 0 20 22;" xml:space="preserve">
<g>
	<path d="M8,20H3c-0.6,0-1-0.4-1-1V3c0-0.6,0.4-1,1-1h5c0.6,0,1-0.4,1-1S8.6,0,8,0H3C1.3,0,0,1.3,0,3v16c0,1.7,1.3,3,3,3h5
		c0.6,0,1-0.4,1-1S8.6,20,8,20z"/>
	<path d="M19.9,11.4c0.1-0.2,0.1-0.5,0-0.8c-0.1-0.1-0.1-0.2-0.2-0.3l-4-4c-0.4-0.4-1-0.4-1.4,0s-0.4,1,0,1.4l2.3,2.3H7
		c-0.6,0-1,0.4-1,1s0.4,1,1,1h9.6l-2.3,2.3c-0.4,0.4-0.4,1,0,1.4c0.2,0.2,0.5,0.3,0.7,0.3s0.5-0.1,0.7-0.3l4-4
		C19.8,11.6,19.9,11.5,19.9,11.4z"/>
</g>
</svg>
