<svg xmlns="http://www.w3.org/2000/svg" width="16" height="16" viewBox="0 0 16 16">
  <path fill="#231F20" d="M13.7761353,1.08091056 C14.1293937,1.08091056 14.4826521,1.21338247 14.747596,1.47832629 C15.2774836,2.00821393 15.2774836,2.89136 14.747596,3.42124764 L12.71636,1.5666409 L12.8046746,1.47832629 C13.0696184,1.21338247 13.4228769,1.08091056 13.7761353,1.08091056 Z M12.1864724,2.09652854 L12.8929892,2.80304539 L3.17838247,12.5176521 L2.47186562,11.8111353 L12.1864724,2.09652854 Z M13.4228769,3.33293303 L14.1293937,4.03944989 L4.41478696,13.7540566 L3.70827011,13.0475398 L13.4228769,3.33293303 Z M1.94197798,12.2527083 L3.88489932,14.1956297 C3.5316409,14.5488881 2.2069218,14.8138319 1.14714652,14.9904611 C1.32377573,14.0190004 1.58871955,12.6059667 1.94197798,12.2527083 Z M13.8202926,0.352315055 C13.2904049,0.352315055 12.7605173,0.55102292 12.3631016,0.94843865 L1.50040494,11.8111353 C0.793888088,12.5176521 0.440629661,15.1670903 0.440629661,15.4320342 L0.352315055,15.8736072 L0.793888088,15.7852926 C1.05883191,15.7852926 3.6199555,15.4320342 4.41478696,14.7255173 L15.2774836,3.86282067 C16.0723151,3.06798921 16.0723151,1.74327011 15.2774836,0.94843865 C14.8800679,0.55102292 14.3501802,0.352315055 13.8202926,0.352315055 Z"/>
</svg>
