<?xml version="1.0" encoding="utf-8"?>
<!-- Generator: Adobe Illustrator 22.0.1, SVG Export Plug-In . SVG Version: 6.00 Build 0)  -->
<svg version="1.1" id="Layer_1" xmlns="http://www.w3.org/2000/svg" xmlns:xlink="http://www.w3.org/1999/xlink" x="0px" y="0px"
	 viewBox="0 0 22 22" style="enable-background:new 0 0 22 22;" xml:space="preserve">
<path transform="translate(1 1)" d="M10,11c-0.2,0-0.3,0-0.4-0.1l-10-5C-0.8,5.7-1,5.4-1,5s0.2-0.7,0.6-0.9l10-5
	c0.3-0.1,0.6-0.1,0.9,0l10,5C20.8,4.3,21,4.6,21,5s-0.2,0.7-0.6,0.9l-10,5C10.3,11,10.2,11,10,11z M2.2,5L10,8.9L17.8,5L10,1.1
	L2.2,5z M10.4,20.9l10-5c0.5-0.2,0.7-0.8,0.4-1.3c-0.2-0.5-0.8-0.7-1.3-0.4L10,18.9l-9.6-4.8c-0.5-0.2-1.1,0-1.3,0.4s0,1.1,0.4,1.3
	l10,5C9.7,21,9.8,21,10,21S10.3,21,10.4,20.9z M10.4,15.9l10-5c0.5-0.2,0.7-0.8,0.4-1.3c-0.2-0.5-0.8-0.7-1.3-0.4L10,13.9L0.4,9.1
	C0,8.9-0.6,9.1-0.9,9.6c-0.2,0.5,0,1.1,0.4,1.3l10,5C9.7,16,9.8,16,10,16S10.3,16,10.4,15.9z"/>
</svg>
