<?xml version="1.0" encoding="utf-8"?>
<!-- Generator: Adobe Illustrator 22.0.1, SVG Export Plug-In . SVG Version: 6.00 Build 0)  -->
<svg version="1.1" id="Layer_1" xmlns="http://www.w3.org/2000/svg" xmlns:xlink="http://www.w3.org/1999/xlink" x="0px" y="0px"
	 viewBox="0 0 22 21" style="enable-background:new 0 0 22 21;" xml:space="preserve">
<path d="M19,4h-3V3c0-1.7-1.3-3-3-3H9C7.3,0,6,1.3,6,3v1H3C1.3,4,0,5.3,0,7v10c0,1.7,1.3,3,3,3h16c1.7,0,3-1.3,3-3V7
	C22,5.3,20.7,4,19,4z M8,3c0-0.6,0.4-1,1-1h4c0.6,0,1,0.4,1,1v1H8V3z M14,6v12H8V6H14z M2,17V7c0-0.6,0.4-1,1-1h3v12H3
	C2.4,18,2,17.6,2,17z M20,17c0,0.6-0.4,1-1,1h-3V6h3c0.6,0,1,0.4,1,1V17z"/>
</svg>
