<?xml version="1.0" encoding="utf-8"?>
<!-- Generator: Adobe Illustrator 22.0.1, SVG Export Plug-In . SVG Version: 6.00 Build 0)  -->
<svg version="1.1" id="Layer_1" xmlns="http://www.w3.org/2000/svg" xmlns:xlink="http://www.w3.org/1999/xlink" x="0px" y="0px"
	 viewBox="0 0 32 32" style="enable-background:new 0 0 32 32;" xml:space="preserve">
<g>
	<path d="M26,5c0.6,0,1,0.4,1,1v4c0,0.6-0.4,1-1,1H5.8l-3-3l3-3H26 M26.2,17l3,3l-3,3H6c-0.6,0-1-0.4-1-1v-4c0-0.6,0.4-1,1-1H26.2
		 M16,0c-0.6,0-1,0.4-1,1v2H5L0,8l5,5h10v2H6c-1.7,0-3,1.3-3,3v4c0,1.7,1.3,3,3,3h9v7h2v-7h10l5-5l-5-5H17v-2h9c1.7,0,3-1.3,3-3V6
		c0-1.7-1.3-3-3-3h-9V1C17,0.4,16.6,0,16,0L16,0z"/>
</g>
</svg>
