<?xml version="1.0" encoding="utf-8"?>
<!-- Generator: Adobe Illustrator 22.0.1, SVG Export Plug-In . SVG Version: 6.00 Build 0)  -->
<svg version="1.1" id="Layer_1" xmlns="http://www.w3.org/2000/svg" xmlns:xlink="http://www.w3.org/1999/xlink" x="0px" y="0px"
	 viewBox="0 0 24 24" style="enable-background:new 0 0 24 24;" xml:space="preserve">
<path transform="translate(1 1)" d="M11,15c-2.2,0-4-1.8-4-4s1.8-4,4-4s4,1.8,4,4S13.2,15,11,15z M11,9c-1.1,0-2,0.9-2,2s0.9,2,2,2
	s2-0.9,2-2S12.1,9,11,9z M11.1,23c-1.7,0-3-1.3-3-3c0-0.3-0.2-0.6-0.4-0.7c-0.3-0.1-0.6-0.1-0.8,0.1c-1.2,1.2-3.2,1.2-4.3,0.1
	c-0.6-0.6-0.9-1.3-0.9-2.1c0-0.8,0.3-1.6,0.9-2.1c0.2-0.2,0.3-0.5,0.2-0.8c-0.1-0.2-0.3-0.4-0.6-0.4H2c-1.7,0-3-1.3-3-3s1.3-3,3-3
	c0.3,0,0.6-0.2,0.7-0.4c0.1-0.3,0.1-0.6-0.1-0.8c-0.7-0.6-1-1.4-1-2.2s0.3-1.6,0.9-2.1c1.1-1.1,3.1-1.1,4.2,0C7,2.8,7.3,2.9,7.5,2.8
	l0.2-0.1C7.9,2.6,8,2.4,8,2.2V2c0-1.7,1.3-3,3-3s3,1.3,3,3c0,0.3,0.2,0.6,0.4,0.7c0.3,0.1,0.5,0.1,0.7-0.1c1.2-1.2,3.2-1.2,4.3-0.1
	c0.6,0.6,0.9,1.3,0.9,2.1S20,6.2,19.4,6.7c-0.2,0.2-0.3,0.5-0.2,0.8l0.1,0.2C19.4,7.9,19.6,8,19.8,8H20c1.7,0,3,1.3,3,3s-1.3,3-3,3
	c-0.3,0-0.6,0.2-0.7,0.4l0,0c-0.1,0.2-0.1,0.5,0.1,0.7c0.6,0.6,0.9,1.4,0.9,2.2s-0.3,1.6-0.9,2.1c-1.1,1.1-3.1,1.1-4.2,0
	c-0.2-0.2-0.5-0.3-0.8-0.2c-0.2,0.1-0.4,0.3-0.4,0.6V20C14.1,21.7,12.7,23,11.1,23z M7.3,17.3c0.4,0,0.7,0.1,1.1,0.2
	c1,0.4,1.7,1.3,1.7,2.4V20c0,0.6,0.4,1,1,1s1-0.4,1-1v-0.2c0-1.1,0.6-2,1.6-2.4s2.1-0.2,2.9,0.5l0.1,0.1c0.4,0.4,1,0.4,1.4,0
	c0.2-0.2,0.3-0.4,0.3-0.7s-0.1-0.5-0.3-0.7c-0.8-0.8-1-2-0.6-3s1.4-1.6,2.4-1.6c0.6,0,1.1-0.4,1.1-1s-0.4-1-1-1h-0.2
	c-1.1,0-2-0.6-2.4-1.6l-0.1-0.3c-0.3-0.9-0.1-2,0.6-2.7c0.3-0.3,0.4-0.5,0.4-0.8S18.2,4.1,18,3.9c-0.4-0.4-1-0.4-1.4,0
	c-0.8,0.8-2,1-3,0.6S12,3.1,12,2.1C12,1.4,11.6,1,11,1s-1,0.4-1,1v0.2c0,1.1-0.6,2-1.6,2.4L8.1,4.7C7.2,5,6.1,4.8,5.4,4.1
	C4.9,3.6,4.3,3.6,3.9,4C3.7,4.2,3.6,4.4,3.6,4.7c0,0.3,0.1,0.5,0.3,0.7c0.8,0.8,1,2,0.6,3c-0.4,1-1.3,1.6-2.4,1.7H2
	c-0.6,0-1,0.4-1,1s0.4,1,1,1h0.2c1.1,0,2,0.6,2.4,1.6s0.2,2.1-0.5,2.9c-0.3,0.3-0.4,0.5-0.4,0.8s0.1,0.5,0.3,0.7
	c0.4,0.4,1,0.4,1.4,0C6,17.5,6.7,17.3,7.3,17.3z"/>
</svg>
